<svg width="155" height="77" viewBox="0 0 155 77" fill="none" xmlns="http://www.w3.org/2000/svg">
<g clip-path="url(#clip0)">
<path d="M44.0477 45.5947H44.0386C43.2844 45.6033 42.5444 45.3883 41.9121 44.9769C41.3373 44.6034 40.8693 44.0872 40.5535 43.4787C40.2378 42.8702 40.0852 42.1902 40.1107 41.5051L41.5886 4.57815C41.6266 3.56235 42.0574 2.60098 42.7902 1.89672C43.523 1.19245 44.5005 0.800311 45.5168 0.802961H129.577C132.26 0.802784 134.853 1.7753 136.876 3.54047L157.131 21.2206C159.737 22.764 161.866 24.9969 163.284 27.6734C164.702 30.3498 165.354 33.3659 165.168 36.3893C165.042 38.5236 164.955 39.8299 164.897 40.6941C164.786 42.0415 164.75 43.3941 164.789 44.7456L164.793 45.3268L164.697 45.327L44.0477 45.5947Z" fill="#F5F3F3"/>
<path d="M117.068 33.9946H48.1805C47.3841 33.9937 46.6206 33.6769 46.0575 33.1136C45.4944 32.5503 45.1776 31.7866 45.1767 30.99V10.5137C45.1776 9.71709 45.4944 8.95339 46.0575 8.39011C46.6206 7.82684 47.3841 7.51 48.1805 7.50909H117.068C117.864 7.51 118.628 7.82684 119.191 8.39011C119.754 8.95339 120.071 9.71709 120.071 10.5137V30.99C120.071 31.7866 119.754 32.5503 119.191 33.1136C118.628 33.6769 117.864 33.9937 117.068 33.9946V33.9946Z" fill="#F5F3F3"/>
<path d="M143.537 25.4087C143.39 25.4086 143.243 25.3883 143.101 25.3485L128.562 21.2811C128.228 21.1863 127.933 20.9866 127.722 20.7115C127.511 20.4363 127.393 20.1004 127.387 19.7535L127.274 10.9102C127.271 10.6936 127.312 10.4787 127.395 10.2784C127.477 10.0781 127.599 9.89644 127.753 9.74441C127.907 9.59238 128.09 9.47307 128.292 9.39366C128.493 9.31424 128.709 9.27634 128.925 9.28224L137.552 9.51872C137.969 9.52928 138.365 9.70227 138.656 10.0008L144.893 16.3688C145.044 16.5243 145.163 16.7089 145.242 16.9114C145.321 17.1139 145.358 17.3302 145.351 17.5474L145.141 23.8538C145.127 24.2701 144.952 24.6648 144.653 24.9548C144.354 25.2447 143.954 25.4075 143.537 25.4087L143.537 25.4087Z" fill="white"/>
<path d="M155.546 52.0977C159.565 52.0977 162.824 48.8387 162.824 44.8184C162.824 40.7981 159.565 37.539 155.546 37.539C151.527 37.539 148.269 40.7981 148.269 44.8184C148.269 48.8387 151.527 52.0977 155.546 52.0977Z" fill="#3F3D56"/>
<path d="M155.546 49.4237C158.089 49.4237 160.15 47.3618 160.15 44.8184C160.15 42.2749 158.089 40.2131 155.546 40.2131C153.003 40.2131 150.942 42.2749 150.942 44.8184C150.942 47.3618 153.003 49.4237 155.546 49.4237Z" fill="white"/>
<path d="M72.4507 52.172C76.4699 52.172 79.728 48.9129 79.728 44.8926C79.728 40.8724 76.4699 37.6133 72.4507 37.6133C68.4315 37.6133 65.1733 40.8724 65.1733 44.8926C65.1733 48.9129 68.4315 52.172 72.4507 52.172Z" fill="#3F3D56"/>
<path d="M72.4507 49.498C74.9934 49.498 77.0547 47.4361 77.0547 44.8926C77.0547 42.3492 74.9934 40.2873 72.4507 40.2873C69.9079 40.2873 67.8466 42.3492 67.8466 44.8926C67.8466 47.4361 69.9079 49.498 72.4507 49.498Z" fill="white"/>
<path d="M145.67 26.4925H145.076C144.558 26.4919 144.062 26.286 143.696 25.92C143.33 25.554 143.124 25.0578 143.124 24.5402V20.2319C143.124 19.7143 143.33 19.2181 143.696 18.8521C144.062 18.4861 144.558 18.2802 145.076 18.2796H145.67C146.187 18.2802 146.683 18.4861 147.049 18.8521C147.415 19.2181 147.621 19.7143 147.621 20.2319V24.5402C147.621 25.0578 147.415 25.554 147.049 25.92C146.683 26.286 146.187 26.4919 145.67 26.4925V26.4925Z" fill="#3F3D56"/>
<path d="M83.7266 19.0434H48.8364V19.9348H83.7266V19.0434Z" fill="#F5F3F3"/>
<path d="M83.7266 24.9858H48.8364V25.8771H83.7266V24.9858Z" fill="#F5F3F3"/>
<path d="M58.4158 32.2674H55.891C55.6147 32.2674 55.3497 32.1576 55.1543 31.9622C54.9589 31.7667 54.8491 31.5017 54.8491 31.2253C54.8491 30.9489 54.9589 30.6838 55.1543 30.4884C55.3497 30.2929 55.6147 30.1831 55.891 30.1831H58.4158C58.6921 30.1831 58.9571 30.2929 59.1525 30.4884C59.3479 30.6838 59.4576 30.9489 59.4576 31.2253C59.4576 31.5017 59.3479 31.7667 59.1525 31.9622C58.9571 32.1576 58.6921 32.2674 58.4158 32.2674H58.4158Z" fill="#F5F3F3"/>
<path d="M61.3861 30.3738C61.1603 30.3738 60.9438 30.4635 60.7842 30.6232C60.6245 30.7828 60.5349 30.9994 60.5349 31.2253C60.5349 31.4511 60.6245 31.6677 60.7842 31.8274C60.9438 31.987 61.1603 32.0768 61.3861 32.0768H63.9109C64.1367 32.0768 64.3532 31.987 64.5128 31.8274C64.6725 31.6677 64.7622 31.4511 64.7622 31.2253C64.7622 30.9994 64.6725 30.7828 64.5128 30.6232C64.3532 30.4635 64.1367 30.3738 63.9109 30.3738H61.3861Z" fill="#F5F3F3"/>
<path d="M69.406 32.2674H66.8812C66.6049 32.2674 66.3399 32.1576 66.1445 31.9622C65.9492 31.7667 65.8394 31.5017 65.8394 31.2253C65.8394 30.9489 65.9492 30.6838 66.1445 30.4884C66.3399 30.2929 66.6049 30.1831 66.8812 30.1831H69.406C69.6824 30.1831 69.9474 30.2929 70.1427 30.4884C70.3381 30.6838 70.4479 30.9489 70.4479 31.2253C70.4479 31.5017 70.3381 31.7667 70.1427 31.9622C69.9474 32.1576 69.6824 32.2674 69.406 32.2674Z" fill="#F5F3F3"/>
<path d="M83.8906 34.3472H52.5452C52.2105 34.3461 51.8899 34.2124 51.6536 33.9753C51.4173 33.7381 51.2847 33.417 51.2847 33.0822C51.2847 32.7474 51.4173 32.4263 51.6536 32.1892C51.8899 31.9521 52.2105 31.8183 52.5452 31.8172H83.8906C84.2253 31.8183 84.5459 31.9521 84.7822 32.1892C85.0185 32.4263 85.1512 32.7474 85.1512 33.0822C85.1512 33.417 85.0185 33.7381 84.7822 33.9753C84.5459 34.2124 84.2253 34.3461 83.8906 34.3472V34.3472Z" fill="#F5F3F3"/>
<path d="M53.1031 25.1415H51.8959C51.7954 25.1414 51.699 25.1014 51.6279 25.0304C51.5568 24.9593 51.5168 24.8629 51.5167 24.7624V22.1189C51.5168 22.0183 51.5568 21.9219 51.6279 21.8508C51.699 21.7797 51.7953 21.7397 51.8959 21.7395C51.9164 21.7395 51.9362 21.7313 51.9507 21.7168C51.9653 21.7022 51.9735 21.6825 51.9735 21.6619V21.0907C51.9735 20.9512 52.0289 20.8173 52.1275 20.7187C52.2262 20.62 52.36 20.5646 52.4995 20.5646C52.639 20.5646 52.7728 20.62 52.8714 20.7187C52.97 20.8173 53.0254 20.9512 53.0254 21.0907V21.6619C53.0255 21.6825 53.0336 21.7022 53.0482 21.7168C53.0628 21.7313 53.0825 21.7395 53.1031 21.7395C53.2036 21.7397 53.3 21.7797 53.3711 21.8508C53.4421 21.9219 53.4821 22.0183 53.4822 22.1189V24.7624C53.4821 24.8629 53.4421 24.9593 53.371 25.0304C53.2999 25.1014 53.2036 25.1414 53.1031 25.1415Z" fill="#F5F3F3"/>
<path d="M55.9872 25.1415H54.7801C54.6796 25.1414 54.5832 25.1015 54.5121 25.0304C54.441 24.9593 54.401 24.8629 54.4009 24.7624V22.1189C54.401 22.0183 54.441 21.9219 54.5121 21.8508C54.5831 21.7797 54.6795 21.7397 54.7801 21.7395C54.8006 21.7395 54.8204 21.7313 54.8349 21.7168C54.8495 21.7022 54.8577 21.6825 54.8577 21.6619V21.0907C54.8583 20.9515 54.9139 20.8182 55.0125 20.72C55.111 20.6218 55.2445 20.5666 55.3837 20.5666C55.5228 20.5666 55.6563 20.6218 55.7549 20.72C55.8534 20.8182 55.9091 20.9515 55.9096 21.0907V21.6619C55.9096 21.6825 55.9178 21.7022 55.9324 21.7168C55.9469 21.7313 55.9667 21.7395 55.9872 21.7395C56.0878 21.7397 56.1842 21.7797 56.2552 21.8508C56.3263 21.9219 56.3663 22.0183 56.3664 22.1189V24.7624C56.3663 24.8629 56.3263 24.9593 56.2552 25.0304C56.1841 25.1014 56.0878 25.1414 55.9872 25.1415V25.1415Z" fill="#F5F3F3"/>
<path d="M74.5128 19.5934H73.3056C73.2051 19.5933 73.1087 19.5533 73.0376 19.4822C72.9665 19.4111 72.9266 19.3147 72.9264 19.2142V16.5708C72.9265 16.4702 72.9665 16.3738 73.0376 16.3027C73.1087 16.2316 73.2051 16.1916 73.3056 16.1914C73.3262 16.1914 73.3459 16.1832 73.3605 16.1687C73.375 16.1541 73.3832 16.1344 73.3832 16.1138V15.5426C73.3839 15.4035 73.4396 15.2703 73.5381 15.1722C73.6367 15.074 73.7701 15.019 73.9092 15.019C74.0482 15.019 74.1817 15.074 74.2802 15.1722C74.3788 15.2703 74.4345 15.4035 74.4351 15.5426V16.1138C74.4352 16.1344 74.4434 16.1541 74.4579 16.1687C74.4725 16.1832 74.4922 16.1914 74.5128 16.1914C74.6133 16.1916 74.7097 16.2316 74.7808 16.3027C74.8519 16.3738 74.8918 16.4702 74.8919 16.5708V19.2142C74.8918 19.3147 74.8518 19.4111 74.7808 19.4822C74.7097 19.5533 74.6133 19.5933 74.5128 19.5934V19.5934Z" fill="#F5F3F3"/>
<path d="M77.397 19.5934H76.1898C76.0893 19.5933 75.9929 19.5533 75.9218 19.4822C75.8508 19.4111 75.8108 19.3147 75.8106 19.2142V16.5708C75.8107 16.4702 75.8507 16.3738 75.9218 16.3027C75.9929 16.2316 76.0893 16.1916 76.1898 16.1914C76.2104 16.1914 76.2301 16.1832 76.2447 16.1687C76.2592 16.1541 76.2674 16.1344 76.2674 16.1138V15.5426C76.2677 15.4032 76.3232 15.2697 76.4219 15.1712C76.5205 15.0728 76.6541 15.0175 76.7934 15.0175C76.9328 15.0175 77.0664 15.0728 77.165 15.1712C77.2636 15.2697 77.3191 15.4032 77.3194 15.5426V16.1138C77.3194 16.1344 77.3276 16.1541 77.3422 16.1687C77.3567 16.1832 77.3764 16.1914 77.397 16.1914C77.4976 16.1916 77.5939 16.2316 77.665 16.3027C77.7361 16.3738 77.7761 16.4702 77.7762 16.5708V19.2142C77.7761 19.3147 77.7361 19.4111 77.665 19.4822C77.5939 19.5533 77.4975 19.5933 77.397 19.5934V19.5934Z" fill="#F5F3F3"/>
<path d="M113.123 12.4156H96.7056V34.2751H113.123V12.4156Z" fill="#F5F3F3"/>
<path d="M113.123 17.3605H96.7056V17.8043H113.123V17.3605Z" fill="#F5F3F3"/>
<path d="M113.123 22.6867H96.7056V23.1305H113.123V22.6867Z" fill="#F5F3F3"/>
<path d="M113.123 28.0128H96.7056V28.4567H113.123V28.0128Z" fill="#F5F3F3"/>
<path d="M59.7165 25.3896H58.4832C58.3126 25.3894 58.1491 25.3215 58.0284 25.2009C57.9078 25.0802 57.84 24.9166 57.8398 24.746V23.1794C57.84 23.0088 57.9078 22.8452 58.0284 22.7246C58.1491 22.6039 58.3126 22.536 58.4832 22.5358H59.7165C59.8871 22.536 60.0507 22.6039 60.1713 22.7246C60.2919 22.8452 60.3597 23.0088 60.3599 23.1794V24.746C60.3597 24.9166 60.2919 25.0802 60.1713 25.2009C60.0507 25.3215 59.8871 25.3894 59.7165 25.3896Z" fill="#F5F3F3"/>
<path d="M99.2859 24.0523C99.2038 24.0606 99.1211 24.0625 99.0387 24.0581C99.0246 24.0565 99.0105 24.0606 98.9994 24.0693C98.9883 24.0781 98.9811 24.0909 98.9793 24.1049L98.8216 25.2884C98.8094 25.3743 98.7743 25.4553 98.7198 25.5228C98.6749 25.5766 98.6415 25.639 98.6218 25.7061C98.602 25.7733 98.5962 25.8439 98.6048 25.9134V27.9237C98.6048 27.9237 98.5947 28.1918 98.8005 28.1918C99.047 28.2227 99.2963 28.2227 99.5427 28.1918C99.5427 28.1918 99.7076 28.1605 99.7076 27.9132V25.9337C99.7202 25.8647 99.7176 25.7937 99.7 25.7257C99.6824 25.6578 99.6503 25.5944 99.6058 25.5401C99.5532 25.4724 99.5192 25.392 99.5071 25.307L99.3433 24.0988C99.3414 24.0852 99.3344 24.0728 99.3238 24.0642C99.3131 24.0556 99.2996 24.0513 99.2859 24.0523V24.0523Z" fill="#F5F3F3"/>
<path d="M101.283 24.0523C101.201 24.0606 101.118 24.0625 101.035 24.0581C101.021 24.0565 101.007 24.0606 100.996 24.0693C100.985 24.0781 100.978 24.0909 100.976 24.1049L100.818 25.2884C100.806 25.3743 100.771 25.4553 100.717 25.5228C100.672 25.5766 100.638 25.639 100.619 25.7061C100.599 25.7733 100.593 25.8439 100.602 25.9134V27.9237C100.602 27.9237 100.591 28.1918 100.797 28.1918C101.044 28.2227 101.293 28.2227 101.54 28.1918C101.54 28.1918 101.704 28.1605 101.704 27.9132V25.9337C101.717 25.8647 101.714 25.7937 101.697 25.7257C101.679 25.6578 101.647 25.5944 101.603 25.5401C101.55 25.4724 101.516 25.392 101.504 25.307L101.34 24.0988C101.338 24.0852 101.331 24.0728 101.321 24.0642C101.31 24.0556 101.296 24.0513 101.283 24.0523V24.0523Z" fill="#F5F3F3"/>
<path d="M103.279 24.0523C103.197 24.0606 103.115 24.0625 103.032 24.0581C103.018 24.0565 103.004 24.0606 102.993 24.0693C102.982 24.0781 102.975 24.0909 102.973 24.1049L102.815 25.2884C102.803 25.3743 102.768 25.4553 102.713 25.5228C102.668 25.5766 102.635 25.639 102.615 25.7061C102.596 25.7733 102.59 25.8439 102.598 25.9134V27.9237C102.598 27.9237 102.588 28.1918 102.794 28.1918C103.041 28.2227 103.29 28.2227 103.536 28.1918C103.536 28.1918 103.701 28.1605 103.701 27.9132V25.9337C103.714 25.8647 103.711 25.7937 103.694 25.7257C103.676 25.6578 103.644 25.5944 103.599 25.5401C103.547 25.4723 103.513 25.392 103.501 25.307L103.337 24.0988C103.335 24.0852 103.328 24.0728 103.317 24.0642C103.307 24.0556 103.293 24.0513 103.279 24.0523V24.0523Z" fill="#F5F3F3"/>
<path d="M99.2859 18.7261C99.2038 18.7344 99.1211 18.7363 99.0387 18.7319C99.0246 18.7304 99.0105 18.7344 98.9994 18.7432C98.9883 18.7519 98.9811 18.7647 98.9793 18.7787L98.8216 19.9622C98.8094 20.0481 98.7743 20.1291 98.7198 20.1966C98.6749 20.2504 98.6415 20.3128 98.6218 20.38C98.602 20.4471 98.5962 20.5177 98.6048 20.5872V22.5975C98.6048 22.5975 98.5947 22.8656 98.8005 22.8656C99.047 22.8965 99.2963 22.8965 99.5427 22.8656C99.5427 22.8656 99.7076 22.8344 99.7076 22.587V20.6075C99.7202 20.5385 99.7176 20.4675 99.7 20.3995C99.6824 20.3316 99.6503 20.2683 99.6058 20.2139C99.5532 20.1462 99.5192 20.0658 99.5071 19.9808L99.3433 18.7726C99.3414 18.759 99.3344 18.7467 99.3238 18.738C99.3131 18.7294 99.2996 18.7251 99.2859 18.7261V18.7261Z" fill="#F5F3F3"/>
<path d="M101.283 18.7261C101.201 18.7344 101.118 18.7363 101.035 18.7319C101.021 18.7304 101.007 18.7344 100.996 18.7432C100.985 18.7519 100.978 18.7647 100.976 18.7787L100.818 19.9622C100.806 20.0481 100.771 20.1291 100.717 20.1966C100.672 20.2504 100.638 20.3128 100.619 20.38C100.599 20.4471 100.593 20.5177 100.602 20.5872V22.5975C100.602 22.5975 100.591 22.8656 100.797 22.8656C101.044 22.8965 101.293 22.8965 101.54 22.8656C101.54 22.8656 101.704 22.8344 101.704 22.587V20.6075C101.717 20.5385 101.714 20.4675 101.697 20.3995C101.679 20.3316 101.647 20.2683 101.603 20.2139C101.55 20.1462 101.516 20.0658 101.504 19.9809L101.34 18.7726C101.338 18.759 101.331 18.7467 101.321 18.738C101.31 18.7294 101.296 18.7251 101.283 18.7261V18.7261Z" fill="#F5F3F3"/>
<path d="M103.279 18.7261C103.197 18.7344 103.115 18.7363 103.032 18.7319C103.018 18.7304 103.004 18.7344 102.993 18.7432C102.982 18.7519 102.975 18.7647 102.973 18.7787L102.815 19.9622C102.803 20.0481 102.768 20.1291 102.713 20.1966C102.668 20.2504 102.635 20.3128 102.615 20.38C102.596 20.4471 102.59 20.5177 102.598 20.5872V22.5975C102.598 22.5975 102.588 22.8656 102.794 22.8656C103.041 22.8965 103.29 22.8965 103.536 22.8656C103.536 22.8656 103.701 22.8344 103.701 22.587V20.6075C103.714 20.5385 103.711 20.4675 103.694 20.3995C103.676 20.3316 103.644 20.2683 103.599 20.2139C103.547 20.1462 103.513 20.0658 103.501 19.9808L103.337 18.7726C103.335 18.759 103.328 18.7467 103.317 18.738C103.307 18.7294 103.293 18.7251 103.279 18.7261V18.7261Z" fill="#F5F3F3"/>
<path d="M107.384 18.7261C107.302 18.7344 107.219 18.7363 107.137 18.7319C107.123 18.7304 107.109 18.7344 107.097 18.7432C107.086 18.7519 107.079 18.7647 107.077 18.7787L106.92 19.9622C106.907 20.0481 106.872 20.1291 106.818 20.1966C106.773 20.2504 106.74 20.3128 106.72 20.38C106.7 20.4471 106.694 20.5177 106.703 20.5872V22.5975C106.703 22.5975 106.693 22.8656 106.899 22.8656C107.145 22.8965 107.394 22.8965 107.641 22.8656C107.641 22.8656 107.806 22.8344 107.806 22.587V20.6075C107.818 20.5385 107.816 20.4675 107.798 20.3995C107.78 20.3316 107.748 20.2683 107.704 20.2139C107.651 20.1462 107.617 20.0658 107.605 19.9808L107.441 18.7726C107.439 18.759 107.432 18.7467 107.422 18.738C107.411 18.7294 107.398 18.7251 107.384 18.7261V18.7261Z" fill="#F5F3F3"/>
<path d="M109.381 18.7261C109.299 18.7344 109.216 18.7363 109.133 18.7319C109.119 18.7304 109.105 18.7344 109.094 18.7432C109.083 18.7519 109.076 18.7647 109.074 18.7787L108.916 19.9622C108.904 20.0481 108.869 20.1291 108.815 20.1966C108.77 20.2504 108.736 20.3128 108.717 20.38C108.697 20.4471 108.691 20.5177 108.7 20.5872V22.5975C108.7 22.5975 108.689 22.8656 108.895 22.8656C109.142 22.8965 109.391 22.8965 109.638 22.8656C109.638 22.8656 109.802 22.8344 109.802 22.587V20.6075C109.815 20.5385 109.812 20.4675 109.795 20.3995C109.777 20.3316 109.745 20.2683 109.701 20.2139C109.648 20.1462 109.614 20.0658 109.602 19.9808L109.438 18.7726C109.436 18.759 109.429 18.7467 109.419 18.738C109.408 18.7294 109.394 18.7251 109.381 18.7261V18.7261Z" fill="#F5F3F3"/>
<path d="M111.378 18.7261C111.295 18.7344 111.213 18.7363 111.13 18.7319C111.116 18.7304 111.102 18.7344 111.091 18.7432C111.08 18.7519 111.073 18.7647 111.071 18.7787L110.913 19.9622C110.901 20.0481 110.866 20.1291 110.811 20.1966C110.766 20.2504 110.733 20.3128 110.713 20.38C110.694 20.4471 110.688 20.5177 110.696 20.5872V22.5975C110.696 22.5975 110.686 22.8656 110.892 22.8656C111.139 22.8965 111.388 22.8965 111.634 22.8656C111.634 22.8656 111.799 22.8344 111.799 22.587V20.6075C111.812 20.5385 111.809 20.4675 111.792 20.3995C111.774 20.3316 111.742 20.2683 111.697 20.2139C111.645 20.1462 111.611 20.0658 111.599 19.9808L111.435 18.7726C111.433 18.759 111.426 18.7467 111.415 18.738C111.405 18.7294 111.391 18.7251 111.378 18.7261V18.7261Z" fill="#F5F3F3"/>
<path d="M102.725 13.5109C102.643 13.5192 102.56 13.5211 102.478 13.5167C102.464 13.5151 102.449 13.5192 102.438 13.5279C102.427 13.5367 102.42 13.5495 102.418 13.5635L102.26 14.747C102.248 14.8329 102.213 14.9139 102.159 14.9814C102.114 15.0352 102.08 15.0976 102.061 15.1647C102.041 15.2319 102.035 15.3025 102.044 15.372V17.3823C102.044 17.3823 102.034 17.6504 102.239 17.6504C102.486 17.6813 102.735 17.6813 102.982 17.6504C102.982 17.6504 103.147 17.6191 103.147 17.3718V15.3923C103.159 15.3233 103.157 15.2523 103.139 15.1843C103.121 15.1164 103.089 15.053 103.045 14.9987C102.992 14.931 102.958 14.8506 102.946 14.7656L102.782 13.5574C102.78 13.5438 102.773 13.5314 102.763 13.5228C102.752 13.5142 102.739 13.5099 102.725 13.5109V13.5109Z" fill="#F5F3F3"/>
<path d="M104.722 13.5109C104.639 13.5192 104.557 13.5211 104.474 13.5167C104.46 13.5151 104.446 13.5192 104.435 13.5279C104.424 13.5367 104.417 13.5495 104.415 13.5635L104.257 14.747C104.245 14.8329 104.21 14.9139 104.155 14.9814C104.111 15.0352 104.077 15.0976 104.057 15.1647C104.038 15.2319 104.032 15.3025 104.04 15.372V17.3823C104.04 17.3823 104.03 17.6504 104.236 17.6504C104.483 17.6813 104.732 17.6813 104.978 17.6504C104.978 17.6504 105.143 17.6191 105.143 17.3718V15.3923C105.156 15.3233 105.153 15.2523 105.136 15.1843C105.118 15.1164 105.086 15.053 105.041 14.9987C104.989 14.931 104.955 14.8506 104.943 14.7656L104.779 13.5574C104.777 13.5438 104.77 13.5314 104.759 13.5228C104.749 13.5142 104.735 13.5099 104.722 13.5109V13.5109Z" fill="#F5F3F3"/>
<path d="M106.718 13.5109C106.636 13.5192 106.554 13.5211 106.471 13.5167C106.457 13.5151 106.443 13.5192 106.432 13.5279C106.421 13.5367 106.413 13.5495 106.412 13.5635L106.254 14.747C106.242 14.8329 106.207 14.9139 106.152 14.9814C106.107 15.0352 106.074 15.0976 106.054 15.1647C106.034 15.2319 106.029 15.3025 106.037 15.372V17.3823C106.037 17.3823 106.027 17.6504 106.233 17.6504C106.479 17.6813 106.729 17.6813 106.975 17.6504C106.975 17.6504 107.14 17.6191 107.14 17.3718V15.3923C107.153 15.3233 107.15 15.2523 107.132 15.1843C107.115 15.1164 107.083 15.053 107.038 14.9987C106.986 14.931 106.952 14.8506 106.939 14.7656L106.776 13.5574C106.774 13.5438 106.767 13.5314 106.756 13.5228C106.746 13.5142 106.732 13.5099 106.718 13.5109V13.5109Z" fill="#F5F3F3"/>
<path d="M169.285 52.2994H31.865C31.8145 52.2994 31.766 52.2793 31.7303 52.2436C31.6945 52.2078 31.6744 52.1593 31.6744 52.1088C31.6744 52.0582 31.6945 52.0097 31.7303 51.974C31.766 51.9382 31.8145 51.9181 31.865 51.9181H169.285C169.335 51.9181 169.384 51.9382 169.42 51.974C169.455 52.0097 169.475 52.0582 169.475 52.1088C169.475 52.1593 169.455 52.2078 169.42 52.2436C169.384 52.2793 169.335 52.2994 169.285 52.2994Z" fill="#CACACA"/>
<path d="M125.053 62.2325C125.178 62.1482 125.283 62.0374 125.361 61.9081C125.439 61.7787 125.487 61.6339 125.503 61.4838C125.519 61.3337 125.501 61.182 125.452 61.0393C125.403 60.8966 125.323 60.7665 125.218 60.6581L126.871 57.3832L124.978 57.6028L123.698 60.6791C123.528 60.8675 123.432 61.1119 123.43 61.366C123.428 61.6201 123.519 61.8662 123.686 62.0577C123.853 62.2492 124.084 62.3727 124.336 62.4049C124.588 62.4371 124.843 62.3758 125.053 62.2325V62.2325Z" fill="#FFB7B7"/>
<path d="M130.046 61.1569L128.588 64.5169L127.385 83.8291L130.423 83.7074L131.253 74.5014L133.812 66.3016L135.283 75.443L135.891 83.4643L138.404 83.5732L139.406 61.1569H130.046Z" fill="#3F3D56"/>
<path d="M137.334 44.5773L133.109 44.683L130.627 45.957L130.491 55.3564L128.944 61.8459C128.944 61.8459 138.612 62.5115 139.949 61.5392L138.369 54.1254L140.488 46.1132L137.334 44.5773Z" fill="#4CAF50"/>
<path d="M131.28 46.1128L130.887 45.8471C130.887 45.8471 129.257 46.3357 128.775 48.5095C128.775 48.5095 128.407 49.6001 128.245 50.3499C128.059 51.21 123.963 59.1099 123.963 59.1099L126.415 59.8137L130.912 52.5398L131.28 46.1128Z" fill="#4CAF50"/>
<path d="M140.421 63.4378C140.324 63.3222 140.254 63.1868 140.215 63.041C140.176 62.8952 140.169 62.7426 140.195 62.594C140.222 62.4454 140.28 62.3044 140.367 62.1808C140.453 62.0573 140.566 61.9542 140.697 61.879L140.011 58.2751L141.77 59.0084L142.152 62.3183C142.264 62.5464 142.288 62.8077 142.22 63.0526C142.152 63.2974 141.997 63.5089 141.784 63.6469C141.57 63.7849 141.314 63.8398 141.063 63.8012C140.812 63.7627 140.584 63.6334 140.421 63.4378V63.4378Z" fill="#FFB7B7"/>
<path d="M139.852 46.2255L140.303 46.0786C140.303 46.0786 141.735 46.9978 141.599 49.2202C141.599 49.2202 141.653 50.3702 141.601 51.1356C141.542 52.0134 142.33 60.737 142.33 60.737H139.779L138.685 52.8371L139.852 46.2255Z" fill="#4CAF50"/>
<path d="M138.372 40.6338C138.372 41.2134 138.2 41.7799 137.878 42.2618C137.556 42.7437 137.099 43.1193 136.563 43.341C136.028 43.5628 135.439 43.6208 134.871 43.5078C134.303 43.3947 133.781 43.1156 133.371 42.7058C132.961 42.296 132.682 41.7739 132.569 41.2055C132.456 40.6371 132.514 40.0479 132.736 39.5125C132.958 38.977 133.333 38.5194 133.815 38.1974C134.297 37.8754 134.863 37.7036 135.442 37.7036V37.7036C136.217 37.7016 136.961 38.0077 137.511 38.5545C138.06 39.1013 138.37 39.844 138.372 40.6192C138.372 40.6241 138.372 40.629 138.372 40.6338Z" fill="#FFB7B7"/>
<path d="M132.523 36.698C132.866 35.9598 133.53 36.1058 134.111 36.356C134.846 36.1928 135.546 35.7042 136.338 35.9932C137.119 37.1288 139.74 36.7947 139.182 38.6435C139.181 39.0866 140.015 38.8287 139.87 39.5543C140.312 40.9506 138.275 43.5951 137.106 43.0382C137.395 42.5081 138.055 41.3039 137.053 41.1845C134.898 43.1906 136.831 37.3646 134.123 39.0589C133.226 39.8797 131.999 37.519 132.523 36.698Z" fill="#3F3D56"/>
<path d="M121.514 53.3853C121.473 53.4274 121.435 53.4727 121.402 53.5207L116.144 53.392L115.53 52.2708L113.718 52.9756L114.611 55.066C114.683 55.2348 114.808 55.3757 114.967 55.4675C115.126 55.5593 115.31 55.597 115.493 55.575L121.433 54.8572C121.573 55.0346 121.764 55.1652 121.98 55.2315C122.196 55.2979 122.427 55.2968 122.643 55.2285C122.858 55.1602 123.048 55.0279 123.187 54.8491C123.325 54.6704 123.406 54.4537 123.418 54.2279C123.431 54.0021 123.374 53.7779 123.256 53.5851C123.138 53.3923 122.964 53.2401 122.757 53.1486C122.55 53.0571 122.321 53.0308 122.098 53.0731C121.876 53.1154 121.672 53.2243 121.514 53.3853V53.3853Z" fill="#9F616A"/>
<path d="M112.777 54.8302L112.902 56.8566L109.248 57.2478L105.424 57.6572L106.55 54.5801L112.777 54.8302Z" fill="#9F616A"/>
<path d="M112.906 55.5574C112.864 55.5411 108.737 53.9351 106.201 55.2483L106.139 55.2806L105.633 52.7904L105.345 47.4367L107.22 46.5504L107.737 45.3935L111.254 45.1853L111.976 46.1767L114.437 46.9833L112.966 55.5814L112.906 55.5574Z" fill="#3F3D56"/>
<path d="M113.035 50.7249L113.47 47.306L114.46 47.0044L114.477 47.0106C114.666 47.0987 114.83 47.2326 114.953 47.4003C115.077 47.568 115.157 47.7641 115.186 47.9706C115.327 48.6861 116.392 53.1388 116.403 53.1837L116.414 53.2282L113.911 54.2299L113.035 50.7249Z" fill="#3F3D56"/>
<path d="M118.785 84.115L122.116 83.4314L116.791 68.7339L114.969 63.7208C114.969 63.7208 113.813 59.7013 113.291 58.1458L112.976 56.0587L105.515 56.8847C105.515 56.8847 103.431 59.9457 104.064 64.935L103.778 83.6877L107.11 83.8586L109.9 64.9456L114.798 75.3136C114.798 75.3136 116.342 79.738 117.446 80.697L118.785 84.115Z" fill="#3F3D56"/>
<path d="M112.198 44.3831H106.225C106.102 44.3829 105.984 44.334 105.897 44.2471C105.81 44.1602 105.761 44.0424 105.761 43.9195V41.344C105.761 40.4287 106.125 39.5509 106.772 38.9037C107.419 38.2565 108.296 37.8929 109.211 37.8929C110.126 37.8929 111.004 38.2565 111.651 38.9037C112.298 39.5509 112.661 40.4287 112.661 41.344V43.9195C112.661 44.0424 112.612 44.1602 112.526 44.2471C112.439 44.334 112.321 44.3829 112.198 44.3831V44.3831Z" fill="#3F3D56"/>
<path d="M109.92 44.3231C111.317 44.3231 112.45 43.1903 112.45 41.7929C112.45 40.3955 111.317 39.2626 109.92 39.2626C108.523 39.2626 107.391 40.3955 107.391 41.7929C107.391 43.1903 108.523 44.3231 109.92 44.3231Z" fill="#9F616A"/>
<path d="M113.478 41.6016H109.825L109.788 41.077L109.6 41.6016H109.038L108.964 40.5619L108.592 41.6016H107.504V41.5501C107.505 40.8263 107.793 40.1324 108.304 39.6206C108.816 39.1088 109.51 38.8209 110.233 38.8201H110.748C111.472 38.8209 112.166 39.1088 112.677 39.6206C113.189 40.1324 113.477 40.8263 113.478 41.5501L113.478 41.6016Z" fill="#3F3D56"/>
<path d="M109.795 44.8638C109.768 44.8638 109.74 44.8614 109.713 44.8566L107.039 44.3845V39.963H109.983L109.91 40.048C108.896 41.2311 109.66 43.1495 110.205 44.1878C110.246 44.2638 110.264 44.3496 110.257 44.4354C110.251 44.5212 110.22 44.6035 110.169 44.6727C110.126 44.7318 110.07 44.78 110.005 44.8132C109.94 44.8465 109.868 44.8638 109.795 44.8638Z" fill="#3F3D56"/>
<path d="M124.428 52.9466C124.261 52.9634 124.093 52.9673 123.926 52.9583C123.897 52.9552 123.869 52.9634 123.846 52.9811C123.824 52.9989 123.809 53.0248 123.805 53.0533L123.485 55.4549C123.461 55.6292 123.389 55.7936 123.279 55.9306C123.188 56.0397 123.12 56.1663 123.08 56.3027C123.04 56.439 123.028 56.5821 123.045 56.7231V60.8027C123.045 60.8027 123.025 61.3466 123.443 61.3466C123.943 61.4095 124.449 61.4095 124.949 61.3466C124.949 61.3466 125.283 61.2832 125.283 60.7813V56.7644C125.309 56.6243 125.304 56.4803 125.268 56.3424C125.232 56.2045 125.167 56.076 125.077 55.9658C124.97 55.8282 124.901 55.6652 124.876 55.4927L124.544 53.0409C124.54 53.0133 124.526 52.9882 124.504 52.9707C124.483 52.9532 124.455 52.9446 124.428 52.9466V52.9466Z" fill="white"/>
<path d="M124.194 61.4625C123.942 61.4625 123.689 61.4468 123.438 61.4154C123.382 61.4168 123.327 61.4065 123.275 61.3853C123.223 61.364 123.176 61.3323 123.137 61.292C123.027 61.1521 122.97 60.9778 122.977 60.8L122.977 56.7273C122.959 56.5776 122.972 56.4258 123.015 56.2812C123.058 56.1367 123.13 56.0024 123.226 55.8865C123.328 55.7594 123.394 55.6069 123.417 55.4453L123.737 53.0442C123.743 52.998 123.767 52.9561 123.804 52.9273C123.841 52.8984 123.887 52.885 123.933 52.8898C124.096 52.8984 124.259 52.8945 124.421 52.8781L124.423 52.8779C124.468 52.8746 124.513 52.8887 124.548 52.9172C124.583 52.9458 124.606 52.9866 124.612 53.0315L124.945 55.4835C124.968 55.6439 125.032 55.7955 125.131 55.9235C125.227 56.0404 125.296 56.1767 125.334 56.3229C125.372 56.4691 125.378 56.6218 125.352 56.7706V60.7813C125.352 61.3339 124.965 61.4135 124.962 61.4143C124.707 61.4463 124.451 61.4624 124.194 61.4625V61.4625ZM123.917 53.0267C123.906 53.0262 123.896 53.0296 123.888 53.0361C123.88 53.0426 123.875 53.0518 123.874 53.062L123.554 55.464C123.527 55.6508 123.451 55.827 123.332 55.9739C123.247 56.0759 123.184 56.1942 123.146 56.3216C123.109 56.449 123.098 56.5828 123.114 56.7147L123.114 56.7231V60.8026C123.109 60.9441 123.152 61.0831 123.236 61.1968C123.263 61.2241 123.295 61.2454 123.331 61.2593C123.366 61.2733 123.405 61.2796 123.443 61.2778L123.451 61.2783C123.946 61.3404 124.446 61.3404 124.94 61.2783C124.947 61.2767 125.214 61.2156 125.214 60.7813L125.216 56.7521C125.239 56.6218 125.235 56.4878 125.201 56.3596C125.168 56.2313 125.108 56.1118 125.024 56.0094C124.909 55.862 124.835 55.6873 124.808 55.5024L124.476 53.0501C124.474 53.0401 124.469 53.0309 124.461 53.0245C124.454 53.018 124.444 53.0147 124.433 53.0152C124.264 53.0322 124.093 53.0362 123.922 53.027L123.917 53.0267Z" fill="#3F3D56"/>
<path d="M124.43 56.7961H123.922C123.502 56.7961 123.162 57.1368 123.162 57.5569V59.4662C123.162 59.8864 123.502 60.2271 123.922 60.2271H124.43C124.85 60.2271 125.19 59.8864 125.19 59.4662V57.5569C125.19 57.1368 124.85 56.7961 124.43 56.7961Z" fill="#4CAF50"/>
<path d="M121.7 48.6816C121.534 48.6984 121.366 48.7023 121.199 48.6933C121.17 48.6902 121.141 48.6984 121.119 48.7162C121.096 48.734 121.082 48.7599 121.078 48.7883L120.758 51.1899C120.733 51.3642 120.662 51.5287 120.552 51.6657C120.46 51.7747 120.393 51.9014 120.353 52.0377C120.312 52.174 120.301 52.3171 120.318 52.4582V56.5377C120.318 56.5377 120.298 57.0816 120.715 57.0816C121.215 57.1445 121.721 57.1445 122.222 57.0816C122.222 57.0816 122.556 57.0183 122.556 56.5164V52.4995C122.582 52.3594 122.576 52.2153 122.541 52.0774C122.505 51.9395 122.44 51.811 122.35 51.7008C122.243 51.5633 122.174 51.4002 122.149 51.2278L121.817 48.7759C121.813 48.7484 121.799 48.7233 121.777 48.7058C121.756 48.6882 121.728 48.6796 121.7 48.6816V48.6816Z" fill="white"/>
<path d="M121.467 57.1975C121.214 57.1975 120.962 57.1818 120.711 57.1505C120.655 57.1518 120.599 57.1415 120.547 57.1203C120.496 57.099 120.449 57.0673 120.41 57.027C120.3 56.8871 120.243 56.7128 120.249 56.5351L120.249 52.4624C120.232 52.3126 120.245 52.1608 120.288 52.0163C120.33 51.8717 120.402 51.7374 120.499 51.6216C120.601 51.4944 120.667 51.3419 120.69 51.1803L121.01 48.7792C121.016 48.733 121.04 48.6911 121.077 48.6623C121.113 48.6335 121.16 48.6201 121.206 48.6249C121.369 48.6335 121.532 48.6295 121.694 48.6131L121.695 48.6129C121.741 48.6097 121.785 48.6237 121.821 48.6523C121.856 48.6808 121.879 48.7217 121.885 48.7666L122.217 51.2186C122.24 51.3789 122.305 51.5306 122.404 51.6585C122.5 51.7755 122.569 51.9117 122.607 52.0579C122.645 52.2041 122.651 52.3568 122.625 52.5056V56.5163C122.625 57.0689 122.238 57.1485 122.234 57.1493C121.98 57.1814 121.724 57.1975 121.467 57.1975V57.1975ZM121.189 48.7618C121.179 48.7613 121.169 48.7646 121.161 48.7711C121.153 48.7776 121.148 48.7869 121.146 48.797L120.826 51.199C120.8 51.3859 120.724 51.5621 120.605 51.7089C120.52 51.8109 120.457 51.9293 120.419 52.0567C120.382 52.1841 120.37 52.3178 120.387 52.4497L120.387 52.4582V56.5377C120.382 56.6791 120.425 56.8181 120.509 56.9319C120.536 56.9591 120.568 56.9804 120.604 56.9943C120.639 57.0083 120.677 57.0146 120.715 57.0128L120.724 57.0133C121.218 57.0754 121.719 57.0754 122.213 57.0133C122.219 57.0117 122.487 56.9506 122.487 56.5163L122.488 52.4871C122.512 52.3568 122.507 52.2229 122.474 52.0946C122.441 51.9663 122.38 51.8468 122.296 51.7444C122.182 51.5971 122.107 51.4223 122.081 51.2374L121.749 48.7852C121.747 48.7751 121.742 48.766 121.734 48.7595C121.726 48.753 121.716 48.7497 121.706 48.7502C121.536 48.7672 121.365 48.7712 121.195 48.7621L121.189 48.7618Z" fill="#3F3D56"/>
<path d="M121.702 52.5312H121.195C120.775 52.5312 120.435 52.8718 120.435 53.292V55.2013C120.435 55.6215 120.775 55.9621 121.195 55.9621H121.702C122.123 55.9621 122.463 55.6215 122.463 55.2013V53.292C122.463 52.8718 122.123 52.5312 121.702 52.5312Z" fill="#4CAF50"/>
<path d="M112.472 57.9905H110.105C109.885 57.9905 109.675 57.9032 109.519 57.7478C109.364 57.5924 109.277 57.3816 109.277 57.1618C109.277 56.942 109.364 56.7312 109.519 56.5758C109.675 56.4204 109.885 56.3331 110.105 56.3331H112.472C112.692 56.3331 112.903 56.4204 113.058 56.5758C113.214 56.7312 113.301 56.942 113.301 57.1618C113.301 57.3816 113.214 57.5924 113.058 57.7478C112.903 57.9032 112.692 57.9905 112.472 57.9905V57.9905Z" fill="#F5F3F3"/>
<path d="M113.301 57.517H109.277C109.152 57.5163 109.032 57.4661 108.944 57.3774C108.855 57.2887 108.806 57.1686 108.806 57.0434C108.806 56.9182 108.855 56.7982 108.944 56.7094C109.032 56.6207 109.152 56.5705 109.277 56.5698H113.301C113.363 56.5695 113.425 56.5815 113.483 56.6052C113.541 56.6288 113.593 56.6636 113.637 56.7077C113.681 56.7517 113.717 56.804 113.741 56.8616C113.764 56.9192 113.777 56.981 113.777 57.0434C113.777 57.1058 113.764 57.1676 113.741 57.2252C113.717 57.2828 113.681 57.3352 113.637 57.3792C113.593 57.4232 113.541 57.458 113.483 57.4817C113.425 57.5053 113.363 57.5173 113.301 57.517Z" fill="#CACACA"/>
<path d="M112.823 59.5357H109.687C109.344 59.5352 109.016 59.3987 108.773 59.156C108.531 58.9133 108.395 58.5843 108.395 58.2413C108.395 57.8983 108.531 57.5693 108.773 57.3267C109.016 57.084 109.344 56.9474 109.687 56.947H112.823C113.166 56.947 113.495 57.0834 113.738 57.3261C113.981 57.5688 114.117 57.8981 114.117 58.2413C114.117 58.5846 113.981 58.9138 113.738 59.1566C113.495 59.3993 113.166 59.5357 112.823 59.5357V59.5357Z" fill="#F5F3F3"/>
<path d="M108.507 57.5808C108.448 57.5794 108.389 57.5826 108.331 57.5904L104.851 53.6463L105.256 52.4341L103.507 51.5838L102.581 53.6601C102.507 53.8278 102.488 54.0153 102.529 54.1943C102.57 54.3734 102.668 54.5343 102.808 54.6531L107.373 58.5223C107.338 58.7457 107.372 58.9745 107.471 59.1781C107.569 59.3817 107.727 59.5506 107.923 59.6622C108.12 59.7738 108.346 59.8229 108.571 59.803C108.796 59.783 109.01 59.695 109.184 59.5506C109.358 59.4061 109.484 59.2121 109.545 58.9944C109.606 58.7767 109.599 58.5455 109.526 58.3317C109.452 58.1178 109.315 57.9315 109.133 57.7973C108.951 57.6632 108.733 57.5876 108.507 57.5808V57.5808Z" fill="#9F616A"/>
<path d="M103.192 52.1681L104.552 48.2913C104.705 47.8343 104.897 47.5566 105.122 47.466C105.166 47.4461 105.214 47.4356 105.263 47.4351C105.311 47.4346 105.359 47.4443 105.404 47.4634L106.014 48.2344L106.581 50.614L105.129 54.0301L103.192 52.1681Z" fill="#3F3D56"/>
<path d="M24.9533 41.5278H23.0473C22.8704 41.5278 22.7007 41.4575 22.5756 41.3323C22.4505 41.2072 22.3802 41.0375 22.3802 40.8605C22.3802 40.6835 22.4505 40.5138 22.5756 40.3886C22.7007 40.2635 22.8704 40.1932 23.0473 40.1932H24.9533C25.1302 40.1932 25.2999 40.2635 25.425 40.3886C25.5501 40.5138 25.6204 40.6835 25.6204 40.8605C25.6204 41.0375 25.5501 41.2072 25.425 41.3323C25.2999 41.4575 25.1302 41.5278 24.9533 41.5278V41.5278Z" fill="#F5F3F3"/>
<path d="M25.6204 41.1464H22.3802C22.2791 41.1464 22.1822 41.1063 22.1107 41.0348C22.0392 40.9633 21.9991 40.8663 21.9991 40.7651C21.9991 40.664 22.0392 40.567 22.1107 40.4955C22.1822 40.424 22.2791 40.3839 22.3802 40.3839H25.6204C25.7215 40.3839 25.8184 40.424 25.8899 40.4955C25.9614 40.567 26.0016 40.664 26.0016 40.7651C26.0016 40.8663 25.9614 40.9633 25.8899 41.0348C25.8184 41.1063 25.7215 41.1464 25.6204 41.1464Z" fill="#CACACA"/>
<path d="M25.2357 42.7718H22.7109C22.4348 42.7714 22.1702 42.6615 21.9751 42.4661C21.78 42.2707 21.6705 42.0058 21.6705 41.7297C21.6705 41.4535 21.78 41.1887 21.9751 40.9933C22.1702 40.7979 22.4348 40.6879 22.7109 40.6875H25.2357C25.512 40.6875 25.777 40.7973 25.9724 40.9928C26.1678 41.1882 26.2776 41.4533 26.2776 41.7297C26.2776 42.0061 26.1678 42.2711 25.9724 42.4666C25.777 42.662 25.512 42.7718 25.2357 42.7718V42.7718Z" fill="#F5F3F3"/>
<path d="M32.7677 43.2436H30.8618C30.6848 43.2436 30.5152 43.1733 30.3901 43.0481C30.265 42.923 30.1947 42.7533 30.1947 42.5763C30.1947 42.3993 30.265 42.2296 30.3901 42.1045C30.5152 41.9793 30.6848 41.909 30.8618 41.909H32.7677C32.9446 41.909 33.1143 41.9793 33.2394 42.1045C33.3645 42.2296 33.4348 42.3993 33.4348 42.5763C33.4348 42.7533 33.3645 42.923 33.2394 43.0481C33.1143 43.1733 32.9446 43.2436 32.7677 43.2436V43.2436Z" fill="#F5F3F3"/>
<path d="M33.4348 42.8623H30.1947C30.0936 42.8623 29.9966 42.8221 29.9251 42.7506C29.8536 42.6791 29.8135 42.5821 29.8135 42.481C29.8135 42.3799 29.8536 42.2829 29.9251 42.2114C29.9966 42.1399 30.0936 42.0997 30.1947 42.0997H33.4348C33.5359 42.0997 33.6329 42.1399 33.7043 42.2114C33.7758 42.2829 33.816 42.3799 33.816 42.481C33.816 42.5821 33.7758 42.6791 33.7043 42.7506C33.6329 42.8221 33.5359 42.8623 33.4348 42.8623Z" fill="#CACACA"/>
<path d="M33.0501 44.4877H30.5253C30.2493 44.4873 29.9846 44.3773 29.7895 44.1819C29.5945 43.9865 29.4849 43.7217 29.4849 43.4455C29.4849 43.1694 29.5945 42.9045 29.7895 42.7091C29.9846 42.5137 30.2493 42.4037 30.5253 42.4034H33.0501C33.3264 42.4034 33.5914 42.5132 33.7868 42.7086C33.9822 42.904 34.092 43.1691 34.092 43.4455C34.092 43.7219 33.9822 43.987 33.7868 44.1824C33.5914 44.3779 33.3264 44.4877 33.0501 44.4877V44.4877Z" fill="#F5F3F3"/>
<path d="M19.2331 46.544C18.7411 49.7424 43.6616 49.7425 43.1676 46.5435C43.6597 43.3456 18.7391 43.3456 19.2331 46.544Z" fill="#F5F3F3"/>
<path d="M31.9043 47.7663H30.4964V66.3993H31.9043V47.7663Z" fill="#F5F3F3"/>
<path d="M22.971 45.3652C22.8883 45.204 22.7701 45.0638 22.6253 44.9552C22.4805 44.8465 22.3129 44.7721 22.1352 44.7378C21.9574 44.7034 21.7742 44.71 21.5994 44.7569C21.4245 44.8038 21.2626 44.8899 21.1259 45.0086L15.9574 43.7843L15.5762 42.519L13.5144 42.8575C13.7935 43.7182 13.6813 45.9234 15.0086 45.946L20.856 46.4613C21.5511 47.8329 23.685 46.7196 22.971 45.3652Z" fill="#9F616A"/>
<path d="M11.7637 54.3653H16.9633C16.9633 54.5148 22.322 54.6361 22.322 54.6361C23.3511 55.3898 22.8672 57.3286 21.5108 57.2902L11.7637 57.2902C9.97113 57.3158 9.96746 54.3401 11.7637 54.3653Z" fill="#F5F3F3"/>
<path d="M17.4196 57.2365H16.0117V66.3363H17.4196V57.2365Z" fill="#F5F3F3"/>
<path d="M21.4268 66.2868C21.4268 66.439 19.2933 66.3457 16.6615 66.3457C14.0297 66.3457 11.8963 66.439 11.8963 66.2868C13.7059 64.5584 19.643 64.574 21.4268 66.2868Z" fill="#F5F3F3"/>
<path d="M20.0475 65.1119L21.3752 65.1117L22.0068 61.6673H20.0473L20.0475 65.1119Z" fill="#9F616A"/>
<path d="M19.7089 66.3993L23.9901 66.3991C24.0533 64.1516 21.1167 64.7415 19.7088 64.6783L19.7089 66.3993Z" fill="#3F3D56"/>
<path d="M22.0334 62.9758L24.6804 57.0385C24.9014 56.538 24.9258 55.9727 24.7488 55.4551C24.5718 54.9374 24.2064 54.5055 23.7253 54.2452L17.9839 51.1656C16.7309 51.0641 14.1953 50.8386 12.9472 50.723C10.6783 54.8242 20.1493 55.7521 21.4904 56.4554C21.541 56.469 21.5883 56.4928 21.6293 56.5255C21.6703 56.5582 21.7041 56.5989 21.7285 56.6453C21.753 56.6916 21.7677 56.7425 21.7716 56.7948C21.7755 56.8471 21.7685 56.8996 21.7512 56.9491L19.292 62.4756C19.2667 62.5457 19.2577 62.6206 19.2658 62.6947C19.2739 62.7688 19.2987 62.8401 19.3386 62.9031C19.3784 62.9661 19.432 63.0192 19.4955 63.0583C19.5589 63.0974 19.6304 63.1215 19.7046 63.1287C20.0933 63.0383 21.8647 63.5756 22.0334 62.9758Z" fill="#3F3D56"/>
<path d="M19.181 65.1119L20.5087 65.1117L21.1406 61.6673H19.1808L19.181 65.1119Z" fill="#9F616A"/>
<path d="M18.8425 66.3993L23.1237 66.3991C23.1869 64.1516 20.2503 64.7415 18.8424 64.6783L18.8425 66.3993Z" fill="#3F3D56"/>
<path d="M21.0587 63.3009L23.7057 57.3635C23.9267 56.863 23.9511 56.2977 23.7741 55.7801C23.5971 55.2624 23.2317 54.8305 22.7506 54.5702L17.0092 51.4906C15.9158 51.4029 13.5757 51.1948 12.4963 51.1035L12.4966 51.0775C11.9279 51.7753 12.1402 54.3017 13.8243 54.7308C16.3925 55.6728 19.3594 56.4779 20.5157 56.7802C20.5664 56.7938 20.6136 56.8177 20.6546 56.8504C20.6956 56.8831 20.7294 56.9239 20.7538 56.9702C20.7783 57.0166 20.793 57.0675 20.7969 57.1198C20.8007 57.1721 20.7938 57.2246 20.7765 57.2741L18.3173 62.8006C18.292 62.8707 18.283 62.9456 18.2911 63.0197C18.2992 63.0938 18.324 63.1651 18.3638 63.2281C18.4036 63.2911 18.4573 63.3442 18.5208 63.3833C18.5842 63.4224 18.6557 63.4465 18.7299 63.4537C19.1213 63.3664 20.888 63.8984 21.0587 63.3009Z" fill="#3F3D56"/>
<path d="M16.0703 51.2118C16.1972 51.122 18.0197 52.0784 18.3446 51.3201C16.8284 47.5285 17.8732 45.8912 16.9445 43.7169C16.3332 41.9855 14.2082 42.1048 12.7405 42.0593C12.1934 42.3241 11.7465 42.7588 11.4667 43.2985C11.1869 43.8382 11.0892 44.454 11.1881 45.0539C11.1967 47.4202 12.6121 49.225 12.1172 50.9413C12.0966 51.0116 12.0903 51.0855 12.0989 51.1583C12.1074 51.2311 12.1306 51.3015 12.167 51.3652C12.2034 51.4288 12.2523 51.4845 12.3107 51.5288C12.3692 51.5731 12.436 51.6051 12.5071 51.6229C12.7747 51.5582 15.9931 51.2235 16.1238 51.1142L16.0703 51.2118Z" fill="#4CAF50"/>
<path d="M13.5448 35.8374C10.0661 35.8531 10.0664 41.1438 13.5449 41.1589C17.0235 41.1433 17.0232 35.8526 13.5448 35.8374Z" fill="#9F616A"/>
<path d="M12.6975 40.9404C12.8388 41.0023 13.1282 39.8758 12.9986 39.6505C12.8058 39.3154 12.8172 39.3178 12.6892 39.0962C12.3066 38.6317 12.9682 37.8616 13.3233 38.4514C13.3446 36.6789 16.7893 38.2109 16.4529 36.2378C12.5168 32.3882 7.02163 38.4493 12.6975 40.9404Z" fill="#3F3D56"/>
<path d="M51.9884 53.5811H47.9238C47.9238 53.7553 43.4806 53.8967 43.4806 53.8967C42.2811 54.7749 42.8455 57.0342 44.4259 56.9895L51.9884 56.9895C54.0782 57.0193 54.0809 53.5518 51.9884 53.5811Z" fill="#F5F3F3"/>
<path d="M49.0326 56.9269H47.392V66.3993H49.0326V56.9269Z" fill="#F5F3F3"/>
<path d="M42.6048 66.2239C42.2816 66.3734 54.0325 66.3729 53.7106 66.2241C51.6019 64.2098 44.6834 64.228 42.6048 66.2239Z" fill="#F5F3F3"/>
<path d="M18.569 47.5146L23.1907 43.8675C24.6323 44.3875 25.4306 42.1152 23.9781 41.6188C23.8075 41.5583 23.6253 41.5374 23.4454 41.5576C23.2656 41.5779 23.0926 41.6388 22.9397 41.7358C22.7869 41.8327 22.658 41.9632 22.5629 42.1172C22.4679 42.2713 22.4091 42.445 22.391 42.6252L17.7902 45.2801L16.6453 44.6208L15.377 46.2817C16.1587 46.7078 17.6007 48.3997 18.569 47.5146Z" fill="#9F616A"/>
<path d="M14.813 46.799L17.45 45.0053C16.8262 44.2888 15.9859 42.1556 14.7022 42.8552C13.2359 43.4476 14.6704 45.825 14.813 46.799Z" fill="#4CAF50"/>
<path d="M34.8643 32.3766H32.9583C32.7814 32.3766 32.6117 32.3063 32.4866 32.1812C32.3615 32.056 32.2912 31.8863 32.2912 31.7093C32.2912 31.5324 32.3615 31.3626 32.4866 31.2375C32.6117 31.1124 32.7814 31.0421 32.9583 31.0421H34.8643C35.0412 31.0421 35.2109 31.1124 35.336 31.2375C35.4611 31.3626 35.5314 31.5324 35.5314 31.7093C35.5314 31.8863 35.4611 32.056 35.336 32.1812C35.2109 32.3063 35.0412 32.3766 34.8643 32.3766Z" fill="#F5F3F3"/>
<path d="M35.5314 31.9953H32.2912C32.1901 31.9953 32.0932 31.9551 32.0217 31.8836C31.9502 31.8121 31.91 31.7151 31.91 31.614C31.91 31.5129 31.9502 31.4159 32.0217 31.3444C32.0932 31.2729 32.1901 31.2327 32.2912 31.2327H35.5314C35.6325 31.2327 35.7294 31.2729 35.8009 31.3444C35.8724 31.4159 35.9126 31.5129 35.9126 31.614C35.9126 31.7151 35.8724 31.8121 35.8009 31.8836C35.7294 31.9551 35.6325 31.9953 35.5314 31.9953Z" fill="#CACACA"/>
<path d="M35.1467 33.6207H32.6219C32.3456 33.6207 32.0806 33.5109 31.8852 33.3154C31.6898 33.12 31.58 32.8549 31.58 32.5785C31.58 32.3021 31.6898 32.037 31.8852 31.8416C32.0806 31.6462 32.3456 31.5364 32.6219 31.5364H35.1467C35.423 31.5364 35.688 31.6462 35.8834 31.8416C36.0788 32.037 36.1886 32.3021 36.1886 32.5785C36.1886 32.8549 36.0788 33.12 35.8834 33.3154C35.688 33.5109 35.423 33.6207 35.1467 33.6207V33.6207Z" fill="#F5F3F3"/>
<path d="M48.5129 46.4629C48.3678 46.3907 48.2404 46.2876 48.1395 46.1608C48.0386 46.034 47.9668 45.8867 47.929 45.7291C47.8912 45.5715 47.8884 45.4076 47.9209 45.2488C47.9533 45.09 48.0201 44.9403 48.1166 44.8101L47.288 36.7063H49.0787L49.7373 44.6193C49.9451 44.796 50.0809 45.0428 50.119 45.3129C50.157 45.5831 50.0947 45.8578 49.9437 46.0851C49.7928 46.3124 49.5638 46.4763 49.3001 46.546C49.0364 46.6156 48.7563 46.5861 48.5129 46.4629V46.4629Z" fill="#FFB6B6"/>
<path d="M46.8687 32.2339C48.2679 32.2339 49.4022 31.0993 49.4022 29.6997C49.4022 28.3001 48.2679 27.1655 46.8687 27.1655C45.4694 27.1655 44.3351 28.3001 44.3351 29.6997C44.3351 31.0993 45.4694 32.2339 46.8687 32.2339Z" fill="#FFB6B6"/>
<path d="M46.2922 41.4149L42.5109 40.589C42.4116 40.5671 42.3221 40.5132 42.2563 40.4356C42.1904 40.358 42.1518 40.2609 42.1464 40.1592C42.1027 39.3152 42.0714 37.1319 42.7213 35.0937C42.8468 34.7029 43.0494 34.3413 43.3171 34.0302C43.5849 33.7191 43.9122 33.4649 44.2799 33.2826C44.6475 33.1003 45.048 32.9936 45.4576 32.9688C45.8672 32.944 46.2776 33.0016 46.6645 33.1383V33.1383C47.0728 33.2818 47.4462 33.51 47.7601 33.808C48.074 34.106 48.3214 34.467 48.486 34.8674C48.6507 35.2678 48.7288 35.6984 48.7153 36.1311C48.7019 36.5638 48.5971 36.9887 48.4079 37.3781C47.5694 39.1004 47.0413 40.3476 46.8383 41.0853C46.8068 41.1998 46.7326 41.2977 46.6309 41.3591C46.5293 41.4204 46.4081 41.4404 46.2922 41.4149L46.2922 41.4149Z" fill="#4CAF50"/>
<path d="M42.7301 65.4906H41.4654L40.8638 60.6113L42.7303 60.6115L42.7301 65.4906Z" fill="#FFB6B6"/>
<path d="M40.5621 65.1291H43.001V66.6651H39.0265C39.0265 66.4634 39.0662 66.2637 39.1434 66.0773C39.2205 65.8909 39.3337 65.7216 39.4763 65.579C39.6188 65.4363 39.7881 65.3232 39.9744 65.246C40.1608 65.1688 40.3604 65.1291 40.5621 65.1291Z" fill="#3F3D56"/>
<path d="M55.3756 63.8512L54.2675 64.4607L51.39 60.4749L53.0257 59.5755L55.3756 63.8512Z" fill="#FFB6B6"/>
<path d="M53.3018 64.5792L55.4391 63.4038L56.1789 64.7499L52.696 66.6652C52.5988 66.4884 52.5374 66.2943 52.5153 66.0938C52.4932 65.8933 52.5107 65.6904 52.567 65.4967C52.6233 65.303 52.7171 65.1222 52.8432 64.9648C52.9693 64.8074 53.1251 64.6763 53.3018 64.5792Z" fill="#3F3D56"/>
<path d="M42.7531 62.781L40.8062 62.6311C40.6973 62.623 40.5947 62.5766 40.5167 62.5001C40.4386 62.4236 40.3901 62.322 40.3798 62.2132C40.1023 59.3184 38.885 44.6489 42.1774 40.1324L42.1866 40.1198L42.2013 40.1144C42.2308 40.1036 45.167 39.0563 46.8516 40.9756C46.9045 41.0366 46.9406 41.1104 46.9562 41.1896C46.9719 41.2688 46.9666 41.3507 46.941 41.4272L46.8767 41.6201C46.8583 41.6748 46.8534 41.7331 46.8623 41.79C46.8712 41.847 46.8937 41.901 46.9278 41.9475C47.3954 42.5797 48.9689 45.0145 49.5873 49.8025C49.5912 49.833 49.5991 49.8628 49.6106 49.8913L54.1766 61.111C54.1999 61.1683 54.2115 61.2297 54.2108 61.2915C54.2101 61.3534 54.197 61.4144 54.1723 61.4712C54.1477 61.5279 54.112 61.5791 54.0672 61.6218C54.0225 61.6645 53.9697 61.6979 53.9119 61.7199L52.4752 62.2675C52.3706 62.3067 52.2553 62.3072 52.1504 62.2686C52.0455 62.2301 51.9578 62.1552 51.9034 62.0576L45.3121 50.0957C45.2859 50.0481 45.2453 50.01 45.1961 49.9868C45.1469 49.9637 45.0916 49.9567 45.0382 49.9668C44.9848 49.9769 44.936 50.0037 44.8987 50.0432C44.8614 50.0828 44.8375 50.1331 44.8306 50.1871L43.249 62.3778C43.2345 62.4896 43.1799 62.5923 43.0952 62.6667C43.0106 62.7411 42.9018 62.7822 42.7891 62.7823C42.7772 62.7824 42.7652 62.7819 42.7531 62.781Z" fill="#3F3D56"/>
<path d="M37.0192 32.6435C37.0319 32.6992 37.0401 32.7557 37.0439 32.8127L41.4751 35.3698L42.5522 34.7495L43.7004 36.2531L41.9003 37.5365C41.7549 37.6401 41.5798 37.6938 41.4012 37.6895C41.2227 37.6851 41.0504 37.623 40.9102 37.5123L36.3409 33.9066C36.1347 33.9829 35.9102 33.9947 35.6971 33.9402C35.4841 33.8858 35.2926 33.7678 35.1483 33.6019C35.0039 33.436 34.9135 33.23 34.889 33.0115C34.8645 32.7929 34.9071 32.572 35.0111 32.3783C35.1152 32.1845 35.2758 32.027 35.4715 31.9268C35.6672 31.8265 35.8888 31.7882 36.1068 31.817C36.3248 31.8458 36.5288 31.9403 36.6918 32.088C36.8548 32.2356 36.969 32.4293 37.0192 32.6435V32.6435Z" fill="#FFB6B6"/>
<path d="M41.5359 35.1142C41.5493 35.0488 41.5766 34.9871 41.6159 34.9332C41.6553 34.8793 41.7058 34.8346 41.764 34.802L43.7975 33.6647C44.0676 33.4558 44.4096 33.3627 44.7483 33.4057C45.087 33.4487 45.3949 33.6244 45.6043 33.8942C45.8136 34.164 45.9074 34.5058 45.8651 34.8448C45.8228 35.1837 45.6478 35.4919 45.3785 35.7019L43.7572 37.386C43.7109 37.434 43.6548 37.4715 43.5928 37.496C43.5307 37.5204 43.4641 37.5311 43.3975 37.5275C43.3309 37.5238 43.2658 37.5059 43.2068 37.4748C43.1478 37.4438 43.0961 37.4003 43.0554 37.3475L41.6232 35.4909C41.5824 35.4381 41.5535 35.3771 41.5385 35.312C41.5234 35.247 41.5225 35.1795 41.5359 35.1142V35.1142Z" fill="#4CAF50"/>
<path d="M46.7996 38.6206C46.7477 38.5786 46.7055 38.526 46.6758 38.4662C46.6461 38.4065 46.6297 38.341 46.6276 38.2743L46.5547 35.945C46.4938 35.6091 46.5687 35.2627 46.7629 34.9818C46.9571 34.701 47.2546 34.5087 47.5904 34.447C47.9261 34.3854 48.2726 34.4594 48.5538 34.6529C48.8351 34.8465 49.0281 35.1437 49.0906 35.4793L49.8385 37.6944C49.8598 37.7576 49.8673 37.8247 49.8604 37.891C49.8535 37.9574 49.8323 38.0215 49.7984 38.0789C49.7645 38.1364 49.7186 38.1859 49.6639 38.224C49.6091 38.2621 49.5468 38.288 49.4812 38.2998L47.1741 38.7165C47.1084 38.7284 47.041 38.726 46.9763 38.7095C46.9117 38.6929 46.8514 38.6626 46.7996 38.6206V38.6206Z" fill="#4CAF50"/>
<path d="M46.4677 29.1168C45.8165 29.5626 44.9615 30.0208 44.2964 29.5461C44.0884 29.3876 43.9373 29.166 43.8657 28.9145C43.7941 28.6629 43.8058 28.3949 43.8992 28.1506C44.2177 27.2396 45.0926 26.8386 45.9293 26.5312C47.017 26.1316 48.2013 25.8136 49.3242 26.0998C50.4471 26.386 51.4394 27.4735 51.2367 28.6147C51.0737 29.5324 50.2083 30.296 50.3311 31.22C50.4548 32.1498 51.5003 32.6393 52.4232 32.8055C53.3462 32.9717 54.379 33.0251 55.0424 33.6882C55.8885 34.5342 55.6772 36.0463 54.881 36.9394C54.0848 37.8326 52.8833 38.2375 51.719 38.5127C50.1764 38.8774 48.5079 39.069 47.0429 38.4638C45.5778 37.8586 44.4377 36.2295 44.8621 34.7019C45.0413 34.0566 45.4637 33.5112 45.8718 32.9803C46.2799 32.4494 46.6932 31.8942 46.8489 31.2429C46.9207 30.9722 46.9286 30.6885 46.872 30.4143C46.8154 30.1401 46.6958 29.8827 46.5227 29.6627C46.4573 29.5914 46.4161 29.5012 46.4051 29.4051C46.3941 29.3089 46.4138 29.2117 46.4614 29.1275L46.4677 29.1168Z" fill="#3F3D56"/>
<path d="M73.7961 66.7887H1.17906C1.12851 66.7887 1.08003 66.7687 1.04429 66.7329C1.00854 66.6971 0.988464 66.6487 0.988464 66.5981C0.988464 66.5475 1.00854 66.499 1.04429 66.4633C1.08003 66.4275 1.12851 66.4074 1.17906 66.4074H73.7961C73.8467 66.4074 73.8952 66.4275 73.9309 66.4633C73.9667 66.499 73.9867 66.5475 73.9867 66.5981C73.9867 66.6487 73.9667 66.6971 73.9309 66.7329C73.8952 66.7687 73.8467 66.7887 73.7961 66.7887Z" fill="#CACACA"/>
<path d="M123.728 12.9304H43.5853C43.384 12.9304 43.1857 12.8813 43.0076 12.7875C42.8296 12.6936 42.677 12.5577 42.5633 12.3916C42.4495 12.2255 42.3779 12.0342 42.3547 11.8342C42.3314 11.6342 42.3573 11.4316 42.4299 11.2438L46.4253 0.91951H120.888L124.884 11.2438C124.956 11.4316 124.982 11.6342 124.959 11.8342C124.936 12.0342 124.864 12.2255 124.75 12.3916C124.637 12.5577 124.484 12.6936 124.306 12.7875C124.128 12.8814 123.93 12.9304 123.728 12.9304V12.9304Z" fill="#CACACA"/>
</g>
<defs>
<clipPath id="clip0">
<rect width="168.487" height="86.3852" fill="white" transform="translate(0.988464 0.802963)"/>
</clipPath>
</defs>
</svg>
